<?xml version="1.0" encoding="UTF-8"?>
<svg width="1200" height="630" viewBox="0 0 1200 630" fill="none" xmlns="http://www.w3.org/2000/svg">
  <rect width="1200" height="630" fill="#121212"/>
  <rect x="50" y="50" width="1100" height="530" rx="20" stroke="#FF00FF" stroke-width="4"/>
  
  <!-- Logo -->
  <g transform="translate(600, 200) scale(0.6)">
    <path d="M-200 0L0 -120L200 0V240L0 360L-200 240V0Z" stroke="#FF00FF" stroke-width="16" stroke-linejoin="round"/>
    <path d="M0 -120V40" stroke="#FF00FF" stroke-width="12"/>
    <path d="M200 0L0 40" stroke="#FF00FF" stroke-width="12"/>
    <path d="M-200 0L0 40" stroke="#FF00FF" stroke-width="12"/>
    <path d="M0 360V200" stroke="#FF00FF" stroke-width="12"/>
    <path d="M200 240L0 200" stroke="#FF00FF" stroke-width="12"/>
    <path d="M-200 240L0 200" stroke="#FF00FF" stroke-width="12"/>
    <circle cx="0" cy="-120" r="16" fill="#FF00FF"/>
    <circle cx="0" cy="40" r="16" fill="#FF00FF"/>
    <circle cx="0" cy="200" r="16" fill="#FF00FF"/>
    <circle cx="0" cy="360" r="16" fill="#FF00FF"/>
    <circle cx="-200" cy="0" r="16" fill="#FF00FF"/>
    <circle cx="-200" cy="240" r="16" fill="#FF00FF"/>
    <circle cx="200" cy="0" r="16" fill="#FF00FF"/>
    <circle cx="200" cy="240" r="16" fill="#FF00FF"/>
  </g>
  
  <!-- Text -->
  <text x="600" y="420" font-family="Arial, sans-serif" font-size="60" font-weight="bold" text-anchor="middle" fill="white">ModHaven</text>
  <text x="600" y="480" font-family="Arial, sans-serif" font-size="30" text-anchor="middle" fill="#FF00FF">Your Ultimate Mod Menu</text>
</svg>